<!--?xml version="1.0" standalone="no"?--><svg version="1.0" xmlns="http://www.w3.org/2000/svg" width="300.000000pt" height="271.000000pt" viewBox="0 0 300.000000 271.000000" preserveAspectRatio="xMidYMid meet">
<metadata>
  <rdf:rdf xmlns:rdf="http://www.w3.org/1999/02/22-rdf-syntax-ns#" xmlns:rdfs="http://www.w3.org/2000/01/rdf-schema#" xmlns:dc="http://purl.org/dc/elements/1.1/">
    <rdf:description dc:title="cooker vector" dc:publisher="Hiox" dc:date="2015-04-21" dc:format="image/svg+xml" dc:language="en">
      <dc:creator>
        <rdf:bag>
          <rdf:li>svgimages.com</rdf:li>
        </rdf:bag>
      </dc:creator>
    </rdf:description>
  </rdf:rdf>
</metadata>
<g transform="translate(0.000000,271.000000) scale(0.100000,-0.100000)" fill="#060606" stroke="none">
<path d="M1599 2695 c-59 -15 -152 -54 -182 -77 -17 -13 -17 -26 3 -341 l21
-328 -30 -46 c-52 -78 -54 -147 -7 -250 31 -67 31 -68 -63 -104 -41 -16 -87
-23 -169 -27 -99 -4 -115 -7 -130 -26 -16 -20 -26 -21 -164 -21 -81 0 -150 3
-153 7 -4 4 7 14 24 22 56 29 100 136 83 201 l-8 30 -110 5 -109 5 -3 46 c-3
40 1 50 23 67 14 12 52 26 83 33 121 24 173 62 186 134 8 40 -5 65 -34 65 -13
0 -19 -11 -24 -45 -9 -57 -48 -91 -114 -100 -127 -18 -163 -45 -185 -140 l-14
-60 -134 -6 c-181 -7 -230 -34 -214 -115 9 -51 42 -68 114 -61 58 6 60 6 111
-36 l52 -42 -221 -3 c-122 -1 -221 -5 -221 -8 0 -3 5 -14 10 -25 10 -17 23
-19 154 -19 114 0 146 -3 156 -15 6 -8 74 -62 149 -119 l137 -105 -1 -89 c-1
-99 2 -92 -108 -226 -47 -58 -49 -62 -45 -112 9 -101 89 -163 223 -172 173
-11 320 74 365 213 13 39 14 39 21 15 5 -14 38 -164 74 -333 36 -170 70 -318
74 -329 7 -20 11 -21 386 -19 209 1 381 4 383 5 3 4 38 119 172 576 49 166 87
280 97 287 28 21 50 15 80 -23 132 -167 212 -164 502 21 140 90 151 99 157
133 26 136 -91 233 -319 266 -76 11 -83 13 -96 41 -20 41 -18 131 4 243 9 51
15 95 12 99 -3 3 -25 -11 -49 -31 -23 -20 -44 -32 -46 -27 -8 23 49 107 85
126 69 37 119 183 111 320 -3 52 -6 60 -24 63 -26 4 -64 -39 -101 -112 -32
-62 -73 -208 -73 -257 0 -22 -7 -42 -18 -53 -18 -15 -23 -15 -86 15 -37 17
-69 29 -72 27 -2 -3 3 -24 11 -48 l15 -42 -35 6 c-19 4 -35 3 -35 -2 0 -5 16
-30 35 -55 22 -29 35 -57 35 -76 l0 -30 -55 6 c-46 5 -55 3 -55 -10 0 -9 21
-28 48 -43 26 -15 49 -29 51 -31 3 -2 -6 -25 -19 -53 -27 -58 -48 -66 -145
-55 -130 14 -254 63 -306 122 l-30 35 40 20 c28 14 46 32 61 63 42 86 35 221
-12 272 l-21 22 68 308 c37 169 69 313 72 318 6 17 -129 84 -213 105 -88 23
-155 24 -235 5z m-1310 -1029 c18 -22 -4 -58 -32 -54 -37 5 -36 68 1 68 11 0
25 -6 31 -14z m481 4 c0 -19 -31 -74 -59 -103 -39 -43 -74 -57 -136 -57 -61 0
-103 17 -132 53 -10 12 -35 36 -56 51 -21 16 -36 34 -34 40 2 7 57 13 153 16
82 3 175 7 207 8 34 1 57 -2 57 -8z m30 -249 c0 -5 -15 -29 -33 -53 -30 -39
-38 -43 -73 -41 -32 1 -268 83 -283 98 -2 3 84 5 192 5 114 0 197 -4 197 -9z
m180 3 c0 -25 -122 -185 -133 -174 -19 19 -9 64 27 119 36 54 43 61 73 61 18
0 33 -3 33 -6z" id="node1" class="node" stroke-width="20"></path>
</g>
<g transform="translate(0.000000,271.000000) scale(0.100000,-0.100000)" fill="#A3A3A3" stroke="none">



<path d="M506 1670 c-96 -3 -151 -9 -153 -16 -2 -6 13 -24 34 -40 21 -15 46
-39 56 -51 29 -36 71 -53 132 -53 82 0 139 37 179 117 25 49 21 53 -41 51 -32
-1 -125 -5 -207 -8z" id="node5" class="node" stroke-width="20"></path>


</g>
</svg>